<?xml version="1.0" encoding="UTF-8" standalone="no"?>
<!DOCTYPE svg PUBLIC "-//W3C//DTD SVG 1.1//EN" "http://www.w3.org/Graphics/SVG/1.1/DTD/svg11.dtd">
<svg xmlns="http://www.w3.org/2000/svg" version="1.1" viewBox="0 0 1000 1000"><g transform="translate(300.6012930174544,220.6931238385389) scale(0.3751615650524395)"><path class="tree-link" d="M-392.67584999999997,60C-392.67584999999997,0 56.09655000000001,11.5 56.09655000000001,11.5" style="stroke-opacity: 1;"></path><path class="tree-link" d="M-93.49425,60C-93.49425,0 56.09655000000001,11.5 56.09655000000001,11.5" style="stroke-opacity: 1;"></path><path class="tree-link" d="M205.68735000000007,60C205.68735000000007,0 56.09655000000001,11.5 56.09655000000001,11.5" style="stroke-opacity: 1;"></path><path class="tree-link" d="M504.86895000000004,60C504.86895000000004,0 56.09655000000001,11.5 56.09655000000001,11.5" style="stroke-opacity: 1;"></path><path class="tree-link" d="M-455.00535,120C-455.00535,60 -392.67584999999997,71.5 -392.67584999999997,71.5" style="stroke-opacity: 1;"></path><path class="tree-link" d="M-330.34635000000003,120C-330.34635000000003,60 -392.67584999999997,71.5 -392.67584999999997,71.5" style="stroke-opacity: 1;"></path><path class="tree-link" d="M-155.82375,120C-155.82375,60 -93.49425,71.5 -93.49425,71.5" style="stroke-opacity: 1;"></path><path class="tree-link" d="M-31.16474999999997,120C-31.16474999999997,60 -93.49425,71.5 -93.49425,71.5" style="stroke-opacity: 1;"></path><path class="tree-link" d="M143.35785000000004,120C143.35785000000004,60 205.68735000000007,71.5 205.68735000000007,71.5" style="stroke-opacity: 1;"></path><path class="tree-link" d="M268.0168500000001,120C268.0168500000001,60 205.68735000000007,71.5 205.68735000000007,71.5" style="stroke-opacity: 1;"></path><path class="tree-link" d="M442.53945,120C442.53945,60 504.86895000000004,71.5 504.86895000000004,71.5" style="stroke-opacity: 1;"></path><path class="tree-link" d="M567.1984500000001,120C567.1984500000001,60 504.86895000000004,71.5 504.86895000000004,71.5" style="stroke-opacity: 1;"></path><path class="tree-link" d="M-392.67584999999997,180C-392.67584999999997,120 -330.34635000000003,131.5 -330.34635000000003,131.5" style="stroke-opacity: 1;"></path><path class="tree-link" d="M-268.01685,180C-268.01685,120 -330.34635000000003,131.5 -330.34635000000003,131.5" style="stroke-opacity: 1;"></path><path class="tree-link" d="M205.68735000000007,180C205.68735000000007,120 268.0168500000001,131.5 268.0168500000001,131.5" style="stroke-opacity: 1;"></path><path class="tree-link" d="M330.34635000000003,180C330.34635000000003,120 268.0168500000001,131.5 268.0168500000001,131.5" style="stroke-opacity: 1;"></path><path class="tree-link" d="M-330.34635000000003,240C-330.34635000000003,180 -268.01685,191.5 -268.01685,191.5" style="stroke-opacity: 1;"></path><path class="tree-link" d="M-205.68735,240C-205.68735,180 -268.01685,191.5 -268.01685,191.5" style="stroke-opacity: 1;"></path><path class="tree-link" d="M268.0168500000001,240C268.0168500000001,180 330.34635000000003,191.5 330.34635000000003,191.5" style="stroke-opacity: 1;"></path><path class="tree-link" d="M392.6758500000001,240C392.6758500000001,180 330.34635000000003,191.5 330.34635000000003,191.5" style="stroke-opacity: 1;"></path><path class="tree-link" d="M-268.01685,300C-268.01685,240 -205.68735,251.5 -205.68735,251.5" style="stroke-opacity: 1;"></path><path class="tree-link" d="M-143.35784999999998,300C-143.35784999999998,240 -205.68735,251.5 -205.68735,251.5" style="stroke-opacity: 1;"></path><path class="tree-link" d="M330.34635000000003,300C330.34635000000003,240 392.6758500000001,251.5 392.6758500000001,251.5" style="stroke-opacity: 1;"></path><path class="tree-link" d="M455.00535000000013,300C455.00535000000013,240 392.6758500000001,251.5 392.6758500000001,251.5" style="stroke-opacity: 1;"></path><path class="tree-link" d="M-205.68735,360C-205.68735,300 -143.35784999999998,311.5 -143.35784999999998,311.5" style="stroke-opacity: 1;"></path><path class="tree-link" d="M-81.02834999999996,360C-81.02834999999996,300 -143.35784999999998,311.5 -143.35784999999998,311.5" style="stroke-opacity: 1;"></path><path class="tree-link" d="M-143.35784999999998,420C-143.35784999999998,360 -81.02834999999996,371.5 -81.02834999999996,371.5" style="stroke-opacity: 1;"></path><path class="tree-link" d="M-18.698849999999965,420C-18.698849999999965,360 -81.02834999999996,371.5 -81.02834999999996,371.5" style="stroke-opacity: 1;"></path><path class="tree-link" d="M-81.02834999999996,480C-81.02834999999996,420 -18.698849999999965,431.5 -18.698849999999965,431.5" style="stroke-opacity: 1;"></path><path class="tree-link" d="M43.63065000000005,480C43.63065000000005,420 -18.698849999999965,431.5 -18.698849999999965,431.5" style="stroke-opacity: 1;"></path><path class="tree-link" d="M-18.698849999999965,540C-18.698849999999965,480 43.63065000000005,491.5 43.63065000000005,491.5" style="stroke-opacity: 1;"></path><path class="tree-link" d="M105.96015000000006,540C105.96015000000006,480 43.63065000000005,491.5 43.63065000000005,491.5" style="stroke-opacity: 1;"></path><path class="tree-link" d="M43.63065000000005,600C43.63065000000005,540 105.96015000000006,551.5 105.96015000000006,551.5" style="stroke-opacity: 1;"></path><path class="tree-link" d="M168.28965000000005,600C168.28965000000005,540 105.96015000000006,551.5 105.96015000000006,551.5" style="stroke-opacity: 1;"></path><path class="tree-link" d="M105.96015000000006,660C105.96015000000006,600 168.28965000000005,611.5 168.28965000000005,611.5" style="stroke-opacity: 1;"></path><path class="tree-link" d="M230.61915000000008,660C230.61915000000008,600 168.28965000000005,611.5 168.28965000000005,611.5" style="stroke-opacity: 1;"></path><path class="tree-link" d="M168.28965000000005,720C168.28965000000005,660 230.61915000000008,671.5 230.61915000000008,671.5" style="stroke-opacity: 1;"></path><path class="tree-link" d="M292.9486500000001,720C292.9486500000001,660 230.61915000000008,671.5 230.61915000000008,671.5" style="stroke-opacity: 1;"></path><path class="tree-link" d="M230.61915000000008,780C230.61915000000008,720 292.9486500000001,731.5 292.9486500000001,731.5" style="stroke-opacity: 1;"></path><path class="tree-link" d="M355.2781500000001,780C355.2781500000001,720 292.9486500000001,731.5 292.9486500000001,731.5" style="stroke-opacity: 1;"></path><path class="tree-link" d="M292.9486500000001,840C292.9486500000001,780 355.2781500000001,791.5 355.2781500000001,791.5" style="stroke-opacity: 1;"></path><path class="tree-link" d="M417.60765000000015,840C417.60765000000015,780 355.2781500000001,791.5 355.2781500000001,791.5" style="stroke-opacity: 1;"></path><path class="tree-link" d="M355.2781500000001,900C355.2781500000001,840 417.60765000000015,851.5 417.60765000000015,851.5" style="stroke-opacity: 1;"></path><path class="tree-link" d="M479.9371500000001,900C479.9371500000001,840 417.60765000000015,851.5 417.60765000000015,851.5" style="stroke-opacity: 1;"></path><path class="tree-link" d="M417.60765000000015,960C417.60765000000015,900 479.9371500000001,911.5 479.9371500000001,911.5" style="stroke-opacity: 1;"></path><path class="tree-link" d="M542.2666500000001,960C542.2666500000001,900 479.9371500000001,911.5 479.9371500000001,911.5" style="stroke-opacity: 1;"></path><path class="tree-link" d="M479.9371500000001,1020C479.9371500000001,960 542.2666500000001,971.5 542.2666500000001,971.5" style="stroke-opacity: 1;"></path><path class="tree-link" d="M604.5961500000001,1020C604.5961500000001,960 542.2666500000001,971.5 542.2666500000001,971.5" style="stroke-opacity: 1;"></path><g class="tree-node tree-root" transform="translate(0, 0)" style="opacity: 1;"><rect width="112.19310000000002" height="23" rx="0" ry="0"></rect><text class="node-text" y="11.5" dy=".35em" x="31.193155300903328">sPrime</text><text class="token-range" x="0" y="11.5" dx="0" dy="-1.8em">⨳ 0-21</text><text class="token-value" x="0" y="11.5" dy="2.5em" dx="56.09655000000001"></text></g><g class="tree-node" transform="translate(-448.77239990234375, 60)" style="opacity: 1;"><rect width="112.19310000000002" height="23" rx="0" ry="0"></rect><text class="node-text" y="11.5" dy=".35em" x="31.193155300903328">cPrime</text><text class="token-range" x="0" y="11.5" dx="0" dy="-1.8em">⨳ 0-15</text><text class="token-value" x="0" y="11.5" dy="2.5em" dx="56.09655000000001"></text></g><g class="tree-node" transform="translate(-149.59080505371094, 60)" style="opacity: 1;"><rect width="112.19310000000002" height="23" rx="0" ry="0"></rect><text class="node-text" y="11.5" dy=".35em" x="30.752386105346687">aPrime</text><text class="token-range" x="0" y="11.5" dx="0" dy="-1.8em">⨳ 16</text><text class="token-value" x="0" y="11.5" dy="2.5em" dx="56.09655000000001"></text></g><g class="tree-node" transform="translate(149.59080505371094, 60)" style="opacity: 1;"><rect width="112.19310000000002" height="23" rx="0" ry="0"></rect><text class="node-text" y="11.5" dy=".35em" x="31.193155300903328">cPrime</text><text class="token-range" x="0" y="11.5" dx="0" dy="-1.8em">⨳ 17-20</text><text class="token-value" x="0" y="11.5" dy="2.5em" dx="56.09655000000001"></text></g><g class="tree-node" transform="translate(448.77239990234375, 60)" style="opacity: 1;"><rect width="112.19310000000002" height="23" rx="0" ry="0"></rect><text class="node-text" y="11.5" dy=".35em" x="30.752386105346687">bPrime</text><text class="token-range" x="0" y="11.5" dx="0" dy="-1.8em">⨳ 21</text><text class="token-value" x="0" y="11.5" dy="2.5em" dx="56.09655000000001"></text></g><g class="tree-node tree-leaf" transform="translate(-511.1018981933594, 120)" style="opacity: 1;"><rect width="112.19310000000002" height="23" rx="10" ry="10"></rect><text class="node-text" y="11.5" dy=".35em" x="50.74121810226441">A</text><text class="token-range" x="0" y="11.5" dx="0" dy="-1.8em">⨳ 0</text><text class="token-value" x="0" y="11.5" dy="2.5em" dx="51.6888694885254">a</text></g><g class="tree-node" transform="translate(-386.4429016113281, 120)" style="opacity: 1;"><rect width="112.19310000000002" height="23" rx="0" ry="0"></rect><text class="node-text" y="11.5" dy=".35em" x="26.76343537597657">cPrime2</text><text class="token-range" x="0" y="11.5" dx="0" dy="-1.8em">⨳ 1-15</text><text class="token-value" x="0" y="11.5" dy="2.5em" dx="56.09655000000001"></text></g><g class="tree-node tree-leaf" transform="translate(-211.92030334472656, 120)" style="opacity: 1;"><rect width="112.19310000000002" height="23" rx="10" ry="10"></rect><text class="node-text" y="11.5" dy=".35em" x="50.74121810226441">B</text><text class="token-range" x="0" y="11.5" dx="0" dy="-1.8em">⨳ 16</text><text class="token-value" x="0" y="11.5" dy="2.5em" dx="51.6888694885254">b</text></g><g class="tree-node" transform="translate(-87.26129913330078, 120)" style="opacity: 1;"><rect width="112.19310000000002" height="23" rx="0" ry="0"></rect><text class="node-text" y="11.5" dy=".35em" x="26.300630581665047">aPrime2</text><text class="token-range" x="0" y="11.5" dx="0" dy="-1.8em">⨳ --</text><text class="token-value" x="0" y="11.5" dy="2.5em" dx="56.09655000000001"></text></g><g class="tree-node tree-leaf" transform="translate(87.26129913330078, 120)" style="opacity: 1;"><rect width="112.19310000000002" height="23" rx="10" ry="10"></rect><text class="node-text" y="11.5" dy=".35em" x="50.74121810226441">A</text><text class="token-range" x="0" y="11.5" dx="0" dy="-1.8em">⨳ 17</text><text class="token-value" x="0" y="11.5" dy="2.5em" dx="51.6888694885254">a</text></g><g class="tree-node" transform="translate(211.92030334472656, 120)" style="opacity: 1;"><rect width="112.19310000000002" height="23" rx="0" ry="0"></rect><text class="node-text" y="11.5" dy=".35em" x="26.76343537597657">cPrime2</text><text class="token-range" x="0" y="11.5" dx="0" dy="-1.8em">⨳ 18-20</text><text class="token-value" x="0" y="11.5" dy="2.5em" dx="56.09655000000001"></text></g><g class="tree-node tree-leaf" transform="translate(386.4429016113281, 120)" style="opacity: 1;"><rect width="112.19310000000002" height="23" rx="10" ry="10"></rect><text class="node-text" y="11.5" dy=".35em" x="50.300450337219246">C</text><text class="token-range" x="0" y="11.5" dx="0" dy="-1.8em">⨳ 21</text><text class="token-value" x="0" y="11.5" dy="2.5em" dx="51.6888694885254">c</text></g><g class="tree-node" transform="translate(511.1018981933594, 120)" style="opacity: 1;"><rect width="112.19310000000002" height="23" rx="0" ry="0"></rect><text class="node-text" y="11.5" dy=".35em" x="26.300630581665047">bPrime2</text><text class="token-range" x="0" y="11.5" dx="0" dy="-1.8em">⨳ --</text><text class="token-value" x="0" y="11.5" dy="2.5em" dx="56.09655000000001"></text></g><g class="tree-node tree-leaf" transform="translate(-448.77239990234375, 180)" style="opacity: 1;"><rect width="112.19310000000002" height="23" rx="10" ry="10"></rect><text class="node-text" y="11.5" dy=".35em" x="50.74121810226441">A</text><text class="token-range" x="0" y="11.5" dx="0" dy="-1.8em">⨳ 1</text><text class="token-value" x="0" y="11.5" dy="2.5em" dx="51.6888694885254">a</text></g><g class="tree-node" transform="translate(-324.1134033203125, 180)" style="opacity: 1;"><rect width="112.19310000000002" height="23" rx="0" ry="0"></rect><text class="node-text" y="11.5" dy=".35em" x="26.76343537597657">cPrime2</text><text class="token-range" x="0" y="11.5" dx="0" dy="-1.8em">⨳ 2-15</text><text class="token-value" x="0" y="11.5" dy="2.5em" dx="56.09655000000001"></text></g><g class="tree-node tree-leaf" transform="translate(149.59080505371094, 180)" style="opacity: 1;"><rect width="112.19310000000002" height="23" rx="10" ry="10"></rect><text class="node-text" y="11.5" dy=".35em" x="50.300450337219246">C</text><text class="token-range" x="0" y="11.5" dx="0" dy="-1.8em">⨳ 18</text><text class="token-value" x="0" y="11.5" dy="2.5em" dx="51.6888694885254">c</text></g><g class="tree-node" transform="translate(274.2497863769531, 180)" style="opacity: 1;"><rect width="112.19310000000002" height="23" rx="0" ry="0"></rect><text class="node-text" y="11.5" dy=".35em" x="26.76343537597657">cPrime2</text><text class="token-range" x="0" y="11.5" dx="0" dy="-1.8em">⨳ 19-20</text><text class="token-value" x="0" y="11.5" dy="2.5em" dx="56.09655000000001"></text></g><g class="tree-node tree-leaf" transform="translate(-386.4429016113281, 240)" style="opacity: 1;"><rect width="112.19310000000002" height="23" rx="10" ry="10"></rect><text class="node-text" y="11.5" dy=".35em" x="50.74121810226441">B</text><text class="token-range" x="0" y="11.5" dx="0" dy="-1.8em">⨳ 2</text><text class="token-value" x="0" y="11.5" dy="2.5em" dx="51.6888694885254">b</text></g><g class="tree-node" transform="translate(-261.7839050292969, 240)" style="opacity: 1;"><rect width="112.19310000000002" height="23" rx="0" ry="0"></rect><text class="node-text" y="11.5" dy=".35em" x="26.76343537597657">cPrime2</text><text class="token-range" x="0" y="11.5" dx="0" dy="-1.8em">⨳ 3-15</text><text class="token-value" x="0" y="11.5" dy="2.5em" dx="56.09655000000001"></text></g><g class="tree-node tree-leaf" transform="translate(211.92030334472656, 240)" style="opacity: 1;"><rect width="112.19310000000002" height="23" rx="10" ry="10"></rect><text class="node-text" y="11.5" dy=".35em" x="50.300450337219246">C</text><text class="token-range" x="0" y="11.5" dx="0" dy="-1.8em">⨳ 19</text><text class="token-value" x="0" y="11.5" dy="2.5em" dx="51.6888694885254">c</text></g><g class="tree-node" transform="translate(336.5793151855469, 240)" style="opacity: 1;"><rect width="112.19310000000002" height="23" rx="0" ry="0"></rect><text class="node-text" y="11.5" dy=".35em" x="26.76343537597657">cPrime2</text><text class="token-range" x="0" y="11.5" dx="0" dy="-1.8em">⨳ 20</text><text class="token-value" x="0" y="11.5" dy="2.5em" dx="56.09655000000001"></text></g><g class="tree-node tree-leaf" transform="translate(-324.1134033203125, 300)" style="opacity: 1;"><rect width="112.19310000000002" height="23" rx="10" ry="10"></rect><text class="node-text" y="11.5" dy=".35em" x="50.300450337219246">C</text><text class="token-range" x="0" y="11.5" dx="0" dy="-1.8em">⨳ 3</text><text class="token-value" x="0" y="11.5" dy="2.5em" dx="51.6888694885254">c</text></g><g class="tree-node" transform="translate(-199.45440673828125, 300)" style="opacity: 1;"><rect width="112.19310000000002" height="23" rx="0" ry="0"></rect><text class="node-text" y="11.5" dy=".35em" x="26.76343537597657">cPrime2</text><text class="token-range" x="0" y="11.5" dx="0" dy="-1.8em">⨳ 4-15</text><text class="token-value" x="0" y="11.5" dy="2.5em" dx="56.09655000000001"></text></g><g class="tree-node tree-leaf" transform="translate(274.2497863769531, 300)" style="opacity: 1;"><rect width="112.19310000000002" height="23" rx="10" ry="10"></rect><text class="node-text" y="11.5" dy=".35em" x="50.300450337219246">C</text><text class="token-range" x="0" y="11.5" dx="0" dy="-1.8em">⨳ 20</text><text class="token-value" x="0" y="11.5" dy="2.5em" dx="51.6888694885254">c</text></g><g class="tree-node" transform="translate(398.9088134765625, 300)" style="opacity: 1;"><rect width="112.19310000000002" height="23" rx="0" ry="0"></rect><text class="node-text" y="11.5" dy=".35em" x="26.76343537597657">cPrime2</text><text class="token-range" x="0" y="11.5" dx="0" dy="-1.8em">⨳ --</text><text class="token-value" x="0" y="11.5" dy="2.5em" dx="56.09655000000001"></text></g><g class="tree-node tree-leaf" transform="translate(-261.7839050292969, 360)" style="opacity: 1;"><rect width="112.19310000000002" height="23" rx="10" ry="10"></rect><text class="node-text" y="11.5" dy=".35em" x="50.300450337219246">C</text><text class="token-range" x="0" y="11.5" dx="0" dy="-1.8em">⨳ 4</text><text class="token-value" x="0" y="11.5" dy="2.5em" dx="51.6888694885254">c</text></g><g class="tree-node" transform="translate(-137.12489318847656, 360)" style="opacity: 1;"><rect width="112.19310000000002" height="23" rx="0" ry="0"></rect><text class="node-text" y="11.5" dy=".35em" x="26.76343537597657">cPrime2</text><text class="token-range" x="0" y="11.5" dx="0" dy="-1.8em">⨳ 5-15</text><text class="token-value" x="0" y="11.5" dy="2.5em" dx="56.09655000000001"></text></g><g class="tree-node tree-leaf" transform="translate(-199.45440673828125, 420)" style="opacity: 1;"><rect width="112.19310000000002" height="23" rx="10" ry="10"></rect><text class="node-text" y="11.5" dy=".35em" x="50.74121810226441">B</text><text class="token-range" x="0" y="11.5" dx="0" dy="-1.8em">⨳ 5</text><text class="token-value" x="0" y="11.5" dy="2.5em" dx="51.6888694885254">b</text></g><g class="tree-node" transform="translate(-74.79540252685547, 420)" style="opacity: 1;"><rect width="112.19310000000002" height="23" rx="0" ry="0"></rect><text class="node-text" y="11.5" dy=".35em" x="26.76343537597657">cPrime2</text><text class="token-range" x="0" y="11.5" dx="0" dy="-1.8em">⨳ 6-15</text><text class="token-value" x="0" y="11.5" dy="2.5em" dx="56.09655000000001"></text></g><g class="tree-node tree-leaf" transform="translate(-137.12489318847656, 480)" style="opacity: 1;"><rect width="112.19310000000002" height="23" rx="10" ry="10"></rect><text class="node-text" y="11.5" dy=".35em" x="50.74121810226441">A</text><text class="token-range" x="0" y="11.5" dx="0" dy="-1.8em">⨳ 6</text><text class="token-value" x="0" y="11.5" dy="2.5em" dx="51.6888694885254">a</text></g><g class="tree-node" transform="translate(-12.465900421142578, 480)" style="opacity: 1;"><rect width="112.19310000000002" height="23" rx="0" ry="0"></rect><text class="node-text" y="11.5" dy=".35em" x="26.76343537597657">cPrime2</text><text class="token-range" x="0" y="11.5" dx="0" dy="-1.8em">⨳ 7-15</text><text class="token-value" x="0" y="11.5" dy="2.5em" dx="56.09655000000001"></text></g><g class="tree-node tree-leaf" transform="translate(-74.79540252685547, 540)" style="opacity: 1;"><rect width="112.19310000000002" height="23" rx="10" ry="10"></rect><text class="node-text" y="11.5" dy=".35em" x="50.74121810226441">B</text><text class="token-range" x="0" y="11.5" dx="0" dy="-1.8em">⨳ 7</text><text class="token-value" x="0" y="11.5" dy="2.5em" dx="51.6888694885254">b</text></g><g class="tree-node" transform="translate(49.86360168457031, 540)" style="opacity: 1;"><rect width="112.19310000000002" height="23" rx="0" ry="0"></rect><text class="node-text" y="11.5" dy=".35em" x="26.76343537597657">cPrime2</text><text class="token-range" x="0" y="11.5" dx="0" dy="-1.8em">⨳ 8-15</text><text class="token-value" x="0" y="11.5" dy="2.5em" dx="56.09655000000001"></text></g><g class="tree-node tree-leaf" transform="translate(-12.465900421142578, 600)" style="opacity: 1;"><rect width="112.19310000000002" height="23" rx="10" ry="10"></rect><text class="node-text" y="11.5" dy=".35em" x="50.74121810226441">A</text><text class="token-range" x="0" y="11.5" dx="0" dy="-1.8em">⨳ 8</text><text class="token-value" x="0" y="11.5" dy="2.5em" dx="51.6888694885254">a</text></g><g class="tree-node" transform="translate(112.19309997558594, 600)" style="opacity: 1;"><rect width="112.19310000000002" height="23" rx="0" ry="0"></rect><text class="node-text" y="11.5" dy=".35em" x="26.76343537597657">cPrime2</text><text class="token-range" x="0" y="11.5" dx="0" dy="-1.8em">⨳ 9-15</text><text class="token-value" x="0" y="11.5" dy="2.5em" dx="56.09655000000001"></text></g><g class="tree-node tree-leaf" transform="translate(49.86360168457031, 660)" style="opacity: 1;"><rect width="112.19310000000002" height="23" rx="10" ry="10"></rect><text class="node-text" y="11.5" dy=".35em" x="50.300450337219246">C</text><text class="token-range" x="0" y="11.5" dx="0" dy="-1.8em">⨳ 9</text><text class="token-value" x="0" y="11.5" dy="2.5em" dx="51.6888694885254">c</text></g><g class="tree-node" transform="translate(174.52259826660156, 660)" style="opacity: 1;"><rect width="112.19310000000002" height="23" rx="0" ry="0"></rect><text class="node-text" y="11.5" dy=".35em" x="26.76343537597657">cPrime2</text><text class="token-range" x="0" y="11.5" dx="0" dy="-1.8em">⨳ 10-15</text><text class="token-value" x="0" y="11.5" dy="2.5em" dx="56.09655000000001"></text></g><g class="tree-node tree-leaf" transform="translate(112.19309997558594, 720)" style="opacity: 1;"><rect width="112.19310000000002" height="23" rx="10" ry="10"></rect><text class="node-text" y="11.5" dy=".35em" x="50.300450337219246">C</text><text class="token-range" x="0" y="11.5" dx="0" dy="-1.8em">⨳ 10</text><text class="token-value" x="0" y="11.5" dy="2.5em" dx="51.6888694885254">c</text></g><g class="tree-node" transform="translate(236.8520965576172, 720)" style="opacity: 1;"><rect width="112.19310000000002" height="23" rx="0" ry="0"></rect><text class="node-text" y="11.5" dy=".35em" x="26.76343537597657">cPrime2</text><text class="token-range" x="0" y="11.5" dx="0" dy="-1.8em">⨳ 11-15</text><text class="token-value" x="0" y="11.5" dy="2.5em" dx="56.09655000000001"></text></g><g class="tree-node tree-leaf" transform="translate(174.52259826660156, 780)" style="opacity: 1;"><rect width="112.19310000000002" height="23" rx="10" ry="10"></rect><text class="node-text" y="11.5" dy=".35em" x="50.300450337219246">C</text><text class="token-range" x="0" y="11.5" dx="0" dy="-1.8em">⨳ 11</text><text class="token-value" x="0" y="11.5" dy="2.5em" dx="51.6888694885254">c</text></g><g class="tree-node" transform="translate(299.1816101074219, 780)" style="opacity: 1;"><rect width="112.19310000000002" height="23" rx="0" ry="0"></rect><text class="node-text" y="11.5" dy=".35em" x="26.76343537597657">cPrime2</text><text class="token-range" x="0" y="11.5" dx="0" dy="-1.8em">⨳ 12-15</text><text class="token-value" x="0" y="11.5" dy="2.5em" dx="56.09655000000001"></text></g><g class="tree-node tree-leaf" transform="translate(236.8520965576172, 840)" style="opacity: 1;"><rect width="112.19310000000002" height="23" rx="10" ry="10"></rect><text class="node-text" y="11.5" dy=".35em" x="50.300450337219246">C</text><text class="token-range" x="0" y="11.5" dx="0" dy="-1.8em">⨳ 12</text><text class="token-value" x="0" y="11.5" dy="2.5em" dx="51.6888694885254">c</text></g><g class="tree-node" transform="translate(361.5111083984375, 840)" style="opacity: 1;"><rect width="112.19310000000002" height="23" rx="0" ry="0"></rect><text class="node-text" y="11.5" dy=".35em" x="26.76343537597657">cPrime2</text><text class="token-range" x="0" y="11.5" dx="0" dy="-1.8em">⨳ 13-15</text><text class="token-value" x="0" y="11.5" dy="2.5em" dx="56.09655000000001"></text></g><g class="tree-node tree-leaf" transform="translate(299.1816101074219, 900)" style="opacity: 1;"><rect width="112.19310000000002" height="23" rx="10" ry="10"></rect><text class="node-text" y="11.5" dy=".35em" x="50.74121810226441">A</text><text class="token-range" x="0" y="11.5" dx="0" dy="-1.8em">⨳ 13</text><text class="token-value" x="0" y="11.5" dy="2.5em" dx="51.6888694885254">a</text></g><g class="tree-node" transform="translate(423.8406066894531, 900)" style="opacity: 1;"><rect width="112.19310000000002" height="23" rx="0" ry="0"></rect><text class="node-text" y="11.5" dy=".35em" x="26.76343537597657">cPrime2</text><text class="token-range" x="0" y="11.5" dx="0" dy="-1.8em">⨳ 14-15</text><text class="token-value" x="0" y="11.5" dy="2.5em" dx="56.09655000000001"></text></g><g class="tree-node tree-leaf" transform="translate(361.5111083984375, 960)" style="opacity: 1;"><rect width="112.19310000000002" height="23" rx="10" ry="10"></rect><text class="node-text" y="11.5" dy=".35em" x="50.300450337219246">C</text><text class="token-range" x="0" y="11.5" dx="0" dy="-1.8em">⨳ 14</text><text class="token-value" x="0" y="11.5" dy="2.5em" dx="51.6888694885254">c</text></g><g class="tree-node" transform="translate(486.17010498046875, 960)" style="opacity: 1;"><rect width="112.19310000000002" height="23" rx="0" ry="0"></rect><text class="node-text" y="11.5" dy=".35em" x="26.76343537597657">cPrime2</text><text class="token-range" x="0" y="11.5" dx="0" dy="-1.8em">⨳ 15</text><text class="token-value" x="0" y="11.5" dy="2.5em" dx="56.09655000000001"></text></g><g class="tree-node tree-leaf" transform="translate(423.8406066894531, 1020)" style="opacity: 1;"><rect width="112.19310000000002" height="23" rx="10" ry="10"></rect><text class="node-text" y="11.5" dy=".35em" x="50.300450337219246">C</text><text class="token-range" x="0" y="11.5" dx="0" dy="-1.8em">⨳ 15</text><text class="token-value" x="0" y="11.5" dy="2.5em" dx="51.6888694885254">c</text></g><g class="tree-node" transform="translate(548.4995727539062, 1020)" style="opacity: 1;"><rect width="112.19310000000002" height="23" rx="0" ry="0"></rect><text class="node-text" y="11.5" dy=".35em" x="26.76343537597657">cPrime2</text><text class="token-range" x="0" y="11.5" dx="0" dy="-1.8em">⨳ --</text><text class="token-value" x="0" y="11.5" dy="2.5em" dx="56.09655000000001"></text></g></g><defs><style type="text/css"><![CDATA[
svg.railroad-diagram path { stroke-width: 2; stroke: darkgray; fill: rgba(0, 0, 0, 0);}/* All text except comments. */svg.railroad-diagram text { font: bold 12px Hack, "Source Code Pro", monospace; text-anchor: middle; fill: #404040;}/* Comment text */svg.railroad-diagram text.comment { font: italic 10px Hack, "Source Code Pro", monospace; fill: #404040;}/* The terminal boxes. */svg.railroad-diagram g.terminal rect { stroke-width: 2; stroke: #404040; fill: rgba(200, 200, 200, 1);}svg.railroad-diagram g.non-terminal rect { /* The non-terminal boxes. */ stroke-width: 2; stroke: #404040; fill: rgba(255, 255, 255, 1);}/* Multiple choice text, not working atm. */svg.railroad-diagram text.diagram-text { font-size: 12px Hack, "Source Code Pro", monospace; fill: red;}/* Multiple choice text, not working atm. */svg.railroad-diagram path.diagram-text { stroke-width: 1; stroke: red; fill: red; cursor: help;}
 ]]>
</style></defs></svg>